<svg height='300px' width='300px'  fill="#ff8500" xmlns="http://www.w3.org/2000/svg" xmlns:xlink="http://www.w3.org/1999/xlink" version="1.1" x="0px" y="0px" viewBox="0 0 64 64" enable-background="new 0 0 64 64" xml:space="preserve"><path d="M41,48v-1c0-1.104-0.895-2-2-2H25c-1.104,0-2,0.896-2,2v1H41z"></path><path d="M39,44v-1c0-1.104-0.895-2-2-2H27c-1.104,0-2,0.896-2,2v1H39z"></path><path d="M34,37h-1v-9h1c0.553,0,1-0.447,1-1v-2.022c1.208-0.913,2-2.347,2-3.978c0-2.762-2.238-5-5-5c-2.761,0-5,2.238-5,5  c0,1.63,0.792,3.064,2,3.977V27c0,0.553,0.447,1,1,1h1v9h-1c-1.104,0-2,0.896-2,2v1h8v-1C36,37.896,35.105,37,34,37z M32,17.5  c1.93,0,3.5,1.57,3.5,3.5c0,0.276-0.223,0.5-0.5,0.5c-0.275,0-0.5-0.224-0.5-0.5c0-1.379-1.121-2.5-2.5-2.5  c-0.275,0-0.5-0.224-0.5-0.5S31.724,17.5,32,17.5z"></path></svg>