<svg height='300px' width='300px'  fill="#ff8500" xmlns="http://www.w3.org/2000/svg" xmlns:xlink="http://www.w3.org/1999/xlink" version="1.1" x="0px" y="0px" viewBox="0 0 100 100" style="enable-background:new 0 0 100 100;" xml:space="preserve"><style type="text/css">
	.st0{fill:none;stroke:#000000;stroke-width:2;stroke-linecap:round;stroke-linejoin:round;stroke-miterlimit:10;}
	.st1{fill:none;stroke:#000000;stroke-linecap:round;stroke-linejoin:round;stroke-miterlimit:10;}
	.st2{fill:none;stroke:#000000;stroke-miterlimit:10;}
</style><g><path d="M16.6,49.5c-2.7,0.8-5.2,1.7-7,3c1.1,0,2.6-0.1,3.8-0.5C14.5,51.6,15.7,50.4,16.6,49.5z"></path><path d="M75.1,45.4c0.7-0.2,2-0.9,2.9-1.3c-3.9-1.5-9.8-3.4-17.5-3.8l-1,6C67.5,45.9,74.5,45.5,75.1,45.4z"></path><circle cx="24.5" cy="59.7" r="7.6"></circle><path d="M86,48.5c0,0.8,0,1.4,4.9,1.4c-0.3-1.2-1.1-2-1.4-2.3C87.7,47.7,86,48.1,86,48.5z"></path><path d="M58.4,46.3l1-6.1c-0.8,0-1.6-0.1-2.5-0.1c-9.4,0-17.4,3.4-22.1,5.4c-1.3,0.5-2.3,1-3.2,1.3c0.5,0.3,1.3,0.5,2,0.5   C34.9,47.2,47.5,46.7,58.4,46.3z"></path><path d="M33.7,48.2c-1.6,0-2.9-0.9-3.4-1.2c-0.3,0.1-0.8,0.1-1.4,0.2c-2.4,0.3-6.6,0.8-10.7,1.8c-0.5,0.6-2.6,3.2-4.5,3.9   c-1.3,0.5-3.1,0.6-4.2,0.6c-0.5,0-0.8,0-1,0c-0.4,0.4-0.7,0.8-0.9,1.2c-0.5,0.9-0.8,5-0.4,5.6c0.6,0.3,1.6,0.5,9,1.3   c-0.1-0.6-0.2-1.2-0.2-1.9c0-4.7,3.9-8.6,8.6-8.6s8.6,3.9,8.6,8.6c0,0.8-0.1,1.7-0.4,2.4l23-0.2l2.5-14.7   C46.8,47.8,33.9,48.2,33.7,48.2z"></path><path d="M93,56.2c-0.2-0.1-0.3-0.3-0.3-0.5c0.1-1,0.1-3.9-1.3-4.8c-5.1,0-6.3-0.5-6.3-2.4c0-1.1,1.5-1.5,2.8-1.7   c-1.5,0-3.6-0.2-5.8-1.1c-0.4-0.1-0.8-0.3-1.2-0.5c-0.5-0.2-1-0.4-1.7-0.7c-0.7,0.4-2.8,1.5-3.8,1.8c-0.6,0.2-7.8,0.5-16.1,0.9   l-2.5,14.7l11.9-0.1c-0.3-0.9-0.5-1.8-0.5-2.8c0-4.7,3.9-8.6,8.6-8.6s8.6,3.9,8.6,8.6c0,0.5,0,0.9-0.1,1.3c1.5-0.1,5.1-0.5,6.7-0.8   v-0.9c0-0.2,0.1-0.4,0.4-0.5C92.3,58.2,93,57.9,93,56.2C93,56.3,93,56.3,93,56.2z"></path><path d="M76.8,51.5c-4.2,0-7.6,3.4-7.6,7.6c0,1.1,0.2,2.1,0.7,3.1c0,0,0,0,0,0c1.2,2.7,3.8,4.5,6.9,4.5c4.2,0,7.6-3.4,7.6-7.6   S81,51.5,76.8,51.5z"></path></g></svg>