<svg height='300px' width='300px'  fill="#ff8500" xmlns="http://www.w3.org/2000/svg" xmlns:xlink="http://www.w3.org/1999/xlink" version="1.1" x="0px" y="0px" viewBox="99.842 12.67 307.885 492.606" style="enable-background:new 99.842 12.67 307.885 492.606;" xml:space="preserve"><path d="M407.191,175.66c0-0.027,0.001-0.054,0.001-0.081c0-0.027-0.001-0.053-0.001-0.079c0.191-0.375,0.344-2.203,0.463-5.431  c0.026-0.909,0.079-1.93,0.073-3.057c-0.032-1.127-0.068-2.362-0.106-3.703c-0.049-1.342-0.083-2.793-0.167-4.345  c-0.137-1.548-0.284-3.201-0.44-4.956c-0.711-7.006-1.95-15.665-4.669-25.559c-0.673-2.472-1.487-5.005-2.272-7.647  c-0.873-2.612-1.856-5.288-2.848-8.059c-0.56-1.361-1.129-2.744-1.706-4.147c-0.588-1.399-1.133-2.844-1.826-4.246  c-1.338-2.826-2.642-5.773-4.248-8.668c-0.691-1.299-1.39-2.613-2.097-3.942c-0.767-1.296-1.543-2.607-2.328-3.933  c-1.515-2.688-3.329-5.269-5.083-7.97c-0.866-1.358-1.813-2.681-2.674-4.092c-0.898-1.383-1.712-2.858-2.715-4.212  c-1.969-2.732-4.091-5.468-7.002-7.544c-2.848-2.124-5.263-4.68-7.61-7.452c-1.184-1.371-2.445-2.696-3.717-4.036  c-0.642-0.665-1.297-1.321-1.974-1.959c-0.702-0.609-1.432-1.194-2.186-1.753c-1.816-0.75-3.384-1.794-4.937-2.884  c-1.558-1.083-3.015-2.32-4.454-3.621c-1.44-1.299-2.954-2.535-4.473-3.802c-0.769-0.619-1.535-1.254-2.35-1.82  c-0.824-0.552-1.669-1.08-2.541-1.571c-3.56-1.844-7.14-3.722-10.721-5.754c-1.828-0.949-3.668-1.905-5.522-2.867  c-1.856-0.964-3.803-1.769-5.74-2.632c-7.485-4.226-16.248-5.757-24.91-7.783c-2.202-0.385-4.432-0.693-6.671-0.989  c-2.253-0.211-4.522-0.359-6.789-0.59c-1.131-0.137-2.274-0.189-3.416-0.278c-1.142-0.089-2.286-0.202-3.431-0.345  c-2.288-0.34-4.597-0.564-6.928-1.06c-9.363-0.431-18.981,0.291-28.624,1.935c-1.187,0.318-2.382,0.594-3.585,0.841  c-1.202,0.254-2.421,0.435-3.622,0.723c-2.408,0.54-4.872,0.922-7.311,1.476c-2.425,0.602-4.888,1.152-7.292,1.927  c-2.382,0.837-4.769,1.717-7.044,2.883c-9.825,2.938-18.76,8.491-27.654,14.069c-1.033,0.827-2.085,1.625-3.154,2.401  c-1.071,0.774-2.163,1.519-3.21,2.332c-1.062,0.792-2.138,1.57-3.223,2.342l-1.635,1.153l-1.589,1.22  c-2.103,1.649-4.312,3.202-6.31,5.018c-2.032,1.777-4.083,3.557-5.895,5.592c-0.981,0.941-1.95,1.899-2.911,2.868  c-0.961,0.969-1.833,2.025-2.745,3.046c-0.897,1.035-1.795,2.071-2.695,3.109c-0.85,1.079-1.702,2.159-2.555,3.242  c-0.845,1.087-1.727,2.149-2.562,3.249c-0.818,1.114-1.646,2.223-2.489,3.323c-1.731,2.17-3.343,4.435-5.1,6.626  c-2.922,4.768-6.231,9.34-9.226,14.205c-1.497,2.428-2.794,4.983-4.018,7.576c-1.118,2.642-2.028,5.39-2.647,8.235  c-4.823,10.459-7.793,21.862-9.564,33.477c-1.303,11.671-3.045,23.459-2.604,35.5c-0.019,6.014,0.785,12.03,1.841,17.995  c1.082,5.971,2.328,11.891,3.111,18.008c1.694,5.889,3.271,11.835,5.244,17.711c1.962,5.872,4.414,11.632,7.626,16.999  c1.184,2.043,2.4,4.065,3.625,6.083h-0.005l3.466,6.365c3.462,6.358,6.698,12.879,9.942,19.431  c5.286,11.12,11.882,21.426,17.449,32.188c6.508,10.25,11.299,21.32,17.188,31.67c4.979,10.847,10.017,21.537,16.898,31.098  c4.898,10.632,10.822,20.574,16.576,30.468c6.591,9.436,11.41,19.685,16.224,29.784c5.119,9.928,10.733,19.434,15.84,29.043  c2.098,5.053,4.869,9.699,7.658,14.29c0.696,1.149,1.391,2.295,2.085,3.439l1.026,1.722c0.36,0.616,0.574,0.967,1.249,2.181  c2.281,4.083,4.42,8.076,6.631,12.568c0.51,1.026,1.02,2.052,1.527,3.073c2.139-3.6,4.38-7.42,6.664-11.402  c1.049-1.839,2.094-3.675,3.138-5.506c0.616-1.067,1.22-2.137,1.809-3.213c2.357-4.303,4.478-8.692,6.196-13.255  c5.862-8.473,10.712-17.304,14.273-26.628c5.016-8.536,9.322-17.249,13.744-25.681c3.781-8.783,8.896-16.626,13.189-24.683  c2.739-8.899,6.728-16.893,12.6-23.624c3.279-8.135,6.783-15.91,11.985-22.513c3.763-7.379,6.571-15.025,11.338-21.342  c3.815-6.837,7.532-13.456,10.665-20.122c1.797-7.385,8.058-12.077,9.959-18.841c1.31-3.187,2.922-6.138,4.554-9.005  c0.817-1.433,1.626-2.852,2.427-4.256c0.388-0.709,0.774-1.415,1.158-2.117l0.553-1.062c0.085-0.169,0.104-0.219,0.161-0.31  l0.28-0.451c3.506-5.416,6.385-10.851,9.556-15.812c1.909-2.312,3.065-4.975,3.949-7.655c0.966-2.648,1.687-5.295,3.102-7.574  c1.088-2.42,1.935-4.862,2.807-7.21c0.75-2.393,1.517-4.701,2.134-6.976c1.321-4.519,2.384-8.797,3.212-12.808  c2.458-12.042,3.053-21.539,3.124-27.928c0.089-3.197-0.071-5.631-0.175-7.262C407.42,176.686,407.312,175.893,407.191,175.66z   M255.839,102.028c0.01,0,0.02,0.001,0.03,0.001c0.141,0.204,0.824,0.419,2.013,0.642c1.34,0.23,3.316,0.578,5.852,1.075  c2.537,0.504,5.623,1.264,9.155,2.383c3.516,1.175,7.463,2.77,11.621,5.021c1.844,1.005,3.731,2.135,5.633,3.41  c0.973,0.605,1.691,1.639,2.549,2.465c0.848,0.851,1.749,1.623,3.17,1.804c1.423,0.188,2.326,1.12,3.105,2.177  c0.747,1.104,1.454,2.239,2.508,3.047c1.724,0.133,2.632,1.191,3.267,2.47c0.68,1.249,1.086,2.714,2.069,3.718  c1.166,0.864,1.98,2.057,2.757,3.279c0.7,1.28,1.398,2.575,2.084,3.893c0.615,3.068,2.962,5.196,4.145,8.11  c0.659,1.406,1.671,2.694,2.349,4.159c0.74,1.436,1.154,3.038,0.853,4.831c0.679,3.186,1.561,6.382,2.051,9.739  c0.349,0.802,0.435,1.655,0.486,2.512c0.038,0.859,0.023,1.726-0.066,2.598c-0.07,0.871-0.129,1.739-0.088,2.604  c0.002,0.868,0.096,1.733,0.386,2.608c-0.811,3.497-0.066,7.087-0.767,10.688c0.364,3.754-1.744,7.122-2.399,10.779  c-1.292,3.477-1.69,7.452-4.182,10.557c-0.608,1.845-2.046,3.287-3.295,4.779c-0.655,0.732-1.26,1.487-1.714,2.342  c-0.49,0.832-0.84,1.758-0.948,2.884c-2.76,2.852-5.07,6.025-7.739,9.049c-2.341,3.389-6.114,5.305-9.38,7.705  c-1.818,0.954-3.378,2.306-5.083,3.512c-1.696,1.204-3.553,2.237-5.74,2.424c-1.837,0.996-3.893,1.496-5.926,1.971  c-1.029,0.204-2.036,0.473-3.045,0.739c-1.014,0.249-1.999,0.618-2.983,1.063c-3.967,1.728-8.395,1.766-12.665,1.312  c-4.247-0.648-8.542-0.2-12.663-1.292c-2.15-0.029-4.202-0.617-6.163-1.372c-1.963-0.765-3.84-1.677-5.793-2.386  c-3.524-2.386-6.631-4.87-10.828-5.927c-2.928-2.925-6.279-5.102-9.385-7.699c-3.784-1.925-5.963-5.52-7.746-9.043  c-2.089-3.322-4.371-6.495-5.963-10.001c-0.185-0.976-0.48-1.883-0.868-2.749c-0.397-0.861-0.887-1.682-1.326-2.527  c-0.947-1.659-1.808-3.381-1.999-5.277c-0.355-3.814-0.519-7.39-2.409-10.778c0.585-3.745,0.523-7.159-0.777-10.686  c0.343-3.505,0.356-6.943,0.709-10.322c-0.347-3.51,1.21-6.625,2.042-9.743c-0.802-3.633,0.134-6.959,3.196-8.992  c0.414-3.21,1.315-6.358,4.137-8.116c0.655-1.336,1.244-2.705,1.905-4.019c0.729-1.261,1.571-2.447,2.927-3.158  c0.931-1.053,1.838-2.092,2.764-3.087c0.887-1.032,1.776-2.027,2.568-3.107c0.236-1.653,1.501-2.259,2.681-2.847  c1.221-0.557,2.454-0.992,2.924-2.385c0.77-1.019,1.74-1.77,2.759-2.391c1.038-0.597,2.046-1.183,2.955-1.885  c1.797-1.432,3.587-2.797,5.628-3.417c1.222,0.11,2.006-0.585,2.8-1.267c0.794-0.67,1.569-1.391,2.593-1.387  c1.815-0.574,3.444-1.353,5.04-1.956c0.798-0.296,1.578-0.559,2.345-0.775c0.764-0.232,1.502-0.456,2.213-0.672  c8.302-2.217,13.281-2.44,13.637-3.086C255.816,102.029,255.828,102.028,255.839,102.028z"></path></svg>