<svg height='300px' width='300px'  fill="#ff8500" xmlns="http://www.w3.org/2000/svg" xmlns:xlink="http://www.w3.org/1999/xlink" viewBox="0 0 39 21" version="1.1" x="0px" y="0px"><title>speed-icon@1x</title><desc>Created with Sketch.</desc><g stroke="none" stroke-width="1" fill="none" fill-rule="evenodd"><g transform="translate(-1304.000000, -2837.000000)" fill="#ff8500"><g transform="translate(-14.000000, -75.000000)"><g transform="translate(307.000000, 2555.000000)"><g transform="translate(0.000000, 237.000000)"><g transform="translate(1011.000000, 120.000000)"><path d="M38.0870769,19.0658538 C38.0870769,19.0843154 38.0963077,19.1004692 38.0963077,19.1189308 C38.0963077,19.8850846 37.4778462,20.5058538 36.7116923,20.5058538 C35.9478462,20.5058538 35.3270769,19.8850846 35.3270769,19.1189308 L35.3247692,19.1189308 C34.6209231,10.7420077 27.6078462,4.15816154 19.0463077,4.15816154 C18.5916923,4.15816154 18.1416923,4.17662308 17.6986154,4.21354615 C16.2586154,4.33354615 15.0886154,4.62431538 14.2832308,4.86893077 C13.4524615,5.0697 12.6447692,4.51123846 12.5224615,3.74739231 C12.414,3.06662308 12.8755385,2.35816154 13.614,2.17354615 C15.3355385,1.66123846 17.1586154,1.38893077 19.0463077,1.38893077 C29.1170769,1.38893077 37.3486154,9.18431538 38.0870769,19.0658538 Z M3.96969231,8.79731538 C4.49123077,8.36116154 5.24815385,8.35654615 5.75584615,8.76962308 C6.30046154,9.21500769 6.42738462,10.0296231 6.02584615,10.6388538 C4.83276923,12.2103923 3.91892308,14.0057769 3.35353846,15.9511615 C3.15046154,16.6596231 2.78123077,17.6911615 2.76738462,19.1196231 C2.76738462,19.8834692 2.13738462,20.5088538 1.37584615,20.5042385 C0.623538462,20.5019308 0.000461538461,19.8788538 0.000461538461,19.1196231 C0.0766153846,18.0350077 0.247384615,16.9757769 0.501230769,15.9488538 C1.29046154,12.7319308 2.79046154,10.3342385 3.96969231,8.79731538 Z M3.70730769,0.151315385 C9.51807692,4.72746923 15.3288462,9.30131538 21.1396154,13.8774692 C22.4988462,15.1559308 22.5726923,17.2236231 21.5065385,18.4420846 C20.3180769,19.8013154 17.9226923,19.8613154 16.5357692,18.2874692 C11.9942308,12.5251615 7.455,6.76285385 2.91576923,1.00054615 C2.67346154,0.760546154 2.68269231,0.368238462 2.91576923,0.151315385 C3.12807692,-0.0471461538 3.47423077,-0.0540692308 3.70730769,0.151315385 Z"></path></g></g></g></g></g></g></svg>